<svg width="206" height="40" viewBox="0 0 206 40" fill="none" xmlns="http://www.w3.org/2000/svg">
<rect width="206" height="40" rx="4" fill="#2E3340" fill-opacity="0.87"/>
<rect x="0.5" y="0.5" width="205" height="39" rx="3.5" stroke="white" stroke-opacity="0.5"/>
<path d="M38.4014 16.65C33.8935 16.1035 29.7904 17.018 29.2433 19.9288C29.2433 20.0403 29.1777 20.5979 29.1667 20.6983L29.8889 20.7987C29.878 20.9434 29.878 21.0889 29.8889 21.2336C29.8889 21.5013 29.8889 21.7578 29.8889 21.992L29.1886 21.9139C29.4731 24.9251 31.0815 25.7838 32.7665 25.8284H32.8869C33.6387 25.8626 34.388 25.7175 35.0752 25.4046C35.1006 25.3928 35.1211 25.3724 35.1334 25.3469C35.1456 25.3213 35.1488 25.2923 35.1423 25.2646C35.1359 25.2369 35.1202 25.2124 35.098 25.1953C35.0757 25.1781 35.0483 25.1693 35.0205 25.1704C33.4668 25.3935 32.0225 24.0552 32.0225 21.4121C32.0225 18.0663 34.5719 16.873 38.4342 16.873C38.5218 16.8842 38.5327 16.6723 38.4014 16.65ZM30.0092 22.6834C30.4031 22.6834 30.797 22.7727 31.18 22.795C31.2857 23.6924 31.7006 24.5224 32.3507 25.137C31.7446 25.061 31.1822 24.7764 30.7564 24.3302C30.3306 23.8841 30.067 23.3031 30.0092 22.6834ZM31.3769 19.7615C31.3769 19.873 31.2894 20.0738 31.2456 20.2745H30.7314C30.4563 20.2618 30.1823 20.232 29.9108 20.1853C29.9147 20.1594 29.9147 20.1331 29.9108 20.1072C30.25 18.3117 31.9897 17.5645 33.6747 17.2522C33.1323 17.4693 32.6445 17.8073 32.2469 18.2415C31.8493 18.6757 31.5521 19.195 31.3769 19.7615Z" fill="white"/>
<path d="M40.157 13.977C36.7493 13 22.1557 11.5423 22.1888 20C22.6718 20.0699 23.29 20.1497 23.5484 20.1847C23.5373 20.3865 23.5373 20.5888 23.5484 20.7906C23.5484 21.2684 23.5484 21.6995 23.5484 22.119L22.1891 21.9675C22.6272 26.8499 25.5593 28.1666 28.2218 28.1666C28.6614 28.1646 29.1004 28.1335 29.5362 28.0734C30.6329 27.9492 31.6967 27.6091 32.6705 27.0713C32.6917 27.0558 32.7077 27.0338 32.7163 27.0084C32.7248 26.9829 32.7253 26.9554 32.7179 26.9296C32.7104 26.9038 32.6953 26.8811 32.6747 26.8647C32.6541 26.8483 32.629 26.839 32.6031 26.8383C30.3563 27.3044 27.2781 26.6751 27.2781 21.1752C27.2781 13.8574 37.281 14.3382 40.1907 14.2217C40.2155 14.2105 40.2361 14.1912 40.2493 14.1667C40.2625 14.1422 40.2675 14.1138 40.2637 14.0861C40.2599 14.0583 40.2474 14.0325 40.2281 14.0128C40.2088 13.9931 40.1838 13.9806 40.157 13.977ZM28.233 27.5491C26.9408 27.6341 25.6672 27.1959 24.6803 26.3265C23.6933 25.4571 23.0701 24.2245 22.9418 22.8881C23.7956 23.0046 24.8853 23.0978 25.7952 23.1444C25.8404 24.0647 26.1186 24.9564 26.6018 25.7297C27.085 26.5029 27.7561 27.1305 28.5476 27.5491H28.233ZM26.1435 18.7048C26.0761 18.9612 25.975 19.4156 25.8851 19.8118L24.537 19.672L23.1777 19.4972C23.1777 19.2758 23.1777 19.0544 23.1777 18.9961C23.8517 15.3256 28.6936 14.1953 32.3672 13.8807C28.8621 14.7313 26.7164 16.351 26.1435 18.6699V18.7048Z" fill="white"/>
<path d="M41.9084 11.6032C37.7563 10.1567 33.3787 9.44579 28.9769 9.50322C22.4832 9.50322 15.9671 10.9732 14.4471 16.2012C14.38 16.4443 14.0447 17.7154 14 17.9586L15.833 18.3454C15.833 18.5886 15.7436 18.8317 15.7212 19.0859C15.643 19.8044 15.5983 20.4675 15.5871 21.0975C15.0841 20.987 14.57 20.8544 14.0447 20.7217C14.0447 28.5802 18.5154 30.5034 22.8632 30.5034C24.619 30.5088 26.3612 30.1979 28.0045 29.586C28.0304 29.5743 28.0514 29.5541 28.0639 29.5288C28.0764 29.5035 28.0797 29.4747 28.0731 29.4472C28.0665 29.4198 28.0505 29.3955 28.0277 29.3785C28.005 29.3615 27.9771 29.3528 27.9486 29.3539C26.5962 29.3539 25.5232 29.796 23.3773 28.2486C19.2084 25.2755 19.7225 17.5386 24.495 14.1675C29.4128 10.6085 40.0419 11.7138 41.8637 11.8243C41.8783 11.8272 41.8935 11.8272 41.9081 11.8243C41.9228 11.8215 41.9368 11.8158 41.9492 11.8076C41.9617 11.7993 41.9724 11.7888 41.9807 11.7765C41.989 11.7642 41.9948 11.7504 41.9978 11.7359C42.0007 11.7214 42.0007 11.7064 41.9978 11.6919C41.9949 11.6774 41.9892 11.6636 41.9809 11.6512C41.9725 11.6389 41.9619 11.6283 41.9494 11.6201C41.937 11.6119 41.923 11.6061 41.9084 11.6032ZM22.9079 29.8402C17.7442 29.8402 15.0059 27.066 14.76 21.5839C16.1622 21.9435 17.584 22.2239 19.0184 22.4239C18.9319 24.5723 19.6797 26.6721 21.1084 28.2929C21.839 29.015 22.7368 29.55 23.7238 29.8513L22.9079 29.8402ZM34.6099 10.7522C26.3503 10.7522 21.4661 12.7196 20.0802 16.6212C19.946 17.0191 19.6666 17.8259 19.4878 18.4449L18.5936 18.257L17.1518 17.9917C16.4393 17.8628 15.7342 17.6968 15.0394 17.4943V17.428C15.0394 17.0897 15.1959 16.7795 15.1959 16.4443C16.6712 11.2385 23.5114 10.1553 28.988 10.1553C31.399 10.1101 33.808 10.3176 36.1747 10.7743L34.6099 10.7522Z" fill="white"/>
<path d="M54.7412 23.6191H59.2598V25H53.0117V15.0469H54.7412V23.6191ZM60.8643 21.2334C60.8643 20.5088 61.0078 19.8571 61.2949 19.2783C61.582 18.695 61.9854 18.2484 62.5049 17.9385C63.0244 17.624 63.6214 17.4668 64.2959 17.4668C65.2939 17.4668 66.1029 17.7881 66.7227 18.4307C67.347 19.0732 67.6842 19.9255 67.7344 20.9873L67.7412 21.377C67.7412 22.1061 67.5999 22.7578 67.3174 23.332C67.0394 23.9062 66.6383 24.3506 66.1143 24.665C65.5947 24.9795 64.9932 25.1367 64.3096 25.1367C63.266 25.1367 62.4297 24.7904 61.8008 24.0977C61.1764 23.4004 60.8643 22.473 60.8643 21.3154V21.2334ZM62.5254 21.377C62.5254 22.138 62.6826 22.735 62.9971 23.168C63.3115 23.5964 63.749 23.8105 64.3096 23.8105C64.8701 23.8105 65.3053 23.5918 65.6152 23.1543C65.9297 22.7168 66.0869 22.0765 66.0869 21.2334C66.0869 20.486 65.9251 19.8936 65.6016 19.4561C65.2826 19.0186 64.8473 18.7998 64.2959 18.7998C63.7536 18.7998 63.3229 19.0163 63.0039 19.4492C62.6849 19.8776 62.5254 20.5202 62.5254 21.377ZM69.6055 21.2471C69.6055 20.0986 69.8743 19.1826 70.4121 18.499C70.9544 17.8109 71.6722 17.4668 72.5654 17.4668C73.4085 17.4668 74.0716 17.7607 74.5547 18.3486L74.6299 17.6035H76.127V24.7744C76.127 25.7451 75.8239 26.5107 75.2178 27.0713C74.6162 27.6318 73.8027 27.9121 72.7773 27.9121C72.235 27.9121 71.7041 27.7982 71.1846 27.5703C70.6696 27.347 70.2777 27.0531 70.0088 26.6885L70.7949 25.6904C71.3053 26.2965 71.9342 26.5996 72.6816 26.5996C73.2331 26.5996 73.6683 26.4492 73.9873 26.1484C74.3063 25.8522 74.4658 25.4147 74.4658 24.8359V24.3369C73.9873 24.8701 73.3493 25.1367 72.5518 25.1367C71.6859 25.1367 70.9772 24.7926 70.4258 24.1045C69.8789 23.4163 69.6055 22.4639 69.6055 21.2471ZM71.2598 21.3906C71.2598 22.1335 71.4102 22.7191 71.7109 23.1475C72.0163 23.5713 72.4378 23.7832 72.9756 23.7832C73.6455 23.7832 74.1423 23.4961 74.4658 22.9219V19.668C74.1514 19.1074 73.6592 18.8271 72.9893 18.8271C72.4424 18.8271 72.0163 19.0436 71.7109 19.4766C71.4102 19.9095 71.2598 20.5475 71.2598 21.3906ZM84.5928 25H82.9316V17.6035H84.5928V25ZM82.8291 15.6826C82.8291 15.4274 82.9089 15.2155 83.0684 15.0469C83.2324 14.8783 83.4648 14.7939 83.7656 14.7939C84.0664 14.7939 84.2988 14.8783 84.4629 15.0469C84.627 15.2155 84.709 15.4274 84.709 15.6826C84.709 15.9333 84.627 16.1429 84.4629 16.3115C84.2988 16.4756 84.0664 16.5576 83.7656 16.5576C83.4648 16.5576 83.2324 16.4756 83.0684 16.3115C82.9089 16.1429 82.8291 15.9333 82.8291 15.6826ZM88.6992 17.6035L88.7471 18.458C89.2939 17.7972 90.0117 17.4668 90.9004 17.4668C92.4408 17.4668 93.2246 18.3486 93.252 20.1123V25H91.5908V20.208C91.5908 19.7386 91.4883 19.3923 91.2832 19.1689C91.0827 18.9411 90.7523 18.8271 90.292 18.8271C89.6221 18.8271 89.123 19.1302 88.7949 19.7363V25H87.1338V17.6035H88.6992ZM106.435 22.71L107.61 17.6035H109.23L107.214 25H105.847L104.261 19.9209L102.702 25H101.335L99.3115 17.6035H100.932L102.128 22.6553L103.646 17.6035H104.896L106.435 22.71ZM112.858 25H111.197V17.6035H112.858V25ZM111.095 15.6826C111.095 15.4274 111.174 15.2155 111.334 15.0469C111.498 14.8783 111.73 14.7939 112.031 14.7939C112.332 14.7939 112.564 14.8783 112.729 15.0469C112.893 15.2155 112.975 15.4274 112.975 15.6826C112.975 15.9333 112.893 16.1429 112.729 16.3115C112.564 16.4756 112.332 16.5576 112.031 16.5576C111.73 16.5576 111.498 16.4756 111.334 16.3115C111.174 16.1429 111.095 15.9333 111.095 15.6826ZM117.505 15.8057V17.6035H118.811V18.834H117.505V22.9629C117.505 23.2454 117.56 23.4505 117.669 23.5781C117.783 23.7012 117.983 23.7627 118.271 23.7627C118.462 23.7627 118.656 23.7399 118.852 23.6943V24.9795C118.473 25.0843 118.109 25.1367 117.758 25.1367C116.482 25.1367 115.844 24.4326 115.844 23.0244V18.834H114.627V17.6035H115.844V15.8057H117.505ZM122.473 18.4102C123.015 17.7812 123.701 17.4668 124.53 17.4668C126.107 17.4668 126.907 18.3669 126.93 20.167V25H125.269V20.2285C125.269 19.7181 125.157 19.3581 124.934 19.1484C124.715 18.9342 124.391 18.8271 123.963 18.8271C123.298 18.8271 122.801 19.1234 122.473 19.7158V25H120.812V14.5H122.473V18.4102ZM141.356 21.7598C141.256 22.8216 140.864 23.651 140.181 24.248C139.497 24.8405 138.588 25.1367 137.453 25.1367C136.66 25.1367 135.961 24.9499 135.354 24.5762C134.753 24.1979 134.288 23.6624 133.96 22.9697C133.632 22.277 133.461 21.4727 133.447 20.5566V19.627C133.447 18.6882 133.614 17.861 133.946 17.1455C134.279 16.43 134.755 15.8786 135.375 15.4912C135.999 15.1038 136.719 14.9102 137.535 14.9102C138.633 14.9102 139.518 15.2087 140.188 15.8057C140.857 16.4027 141.247 17.2458 141.356 18.335H139.634C139.552 17.6195 139.342 17.1045 139.005 16.79C138.672 16.471 138.182 16.3115 137.535 16.3115C136.783 16.3115 136.204 16.5872 135.799 17.1387C135.398 17.6855 135.193 18.4899 135.184 19.5518V20.4336C135.184 21.5091 135.375 22.3294 135.758 22.8945C136.145 23.4596 136.71 23.7422 137.453 23.7422C138.132 23.7422 138.643 23.5895 138.984 23.2842C139.326 22.9788 139.543 22.4707 139.634 21.7598H141.356ZM147.37 19.1211C147.151 19.0846 146.926 19.0664 146.693 19.0664C145.932 19.0664 145.42 19.3581 145.155 19.9414V25H143.494V17.6035H145.08L145.121 18.4307C145.522 17.7881 146.078 17.4668 146.789 17.4668C147.026 17.4668 147.222 17.4987 147.377 17.5625L147.37 19.1211ZM148.612 21.2334C148.612 20.5088 148.756 19.8571 149.043 19.2783C149.33 18.695 149.733 18.2484 150.253 17.9385C150.772 17.624 151.369 17.4668 152.044 17.4668C153.042 17.4668 153.851 17.7881 154.471 18.4307C155.095 19.0732 155.432 19.9255 155.482 20.9873L155.489 21.377C155.489 22.1061 155.348 22.7578 155.065 23.332C154.787 23.9062 154.386 24.3506 153.862 24.665C153.343 24.9795 152.741 25.1367 152.058 25.1367C151.014 25.1367 150.178 24.7904 149.549 24.0977C148.924 23.4004 148.612 22.473 148.612 21.3154V21.2334ZM150.273 21.377C150.273 22.138 150.431 22.735 150.745 23.168C151.06 23.5964 151.497 23.8105 152.058 23.8105C152.618 23.8105 153.053 23.5918 153.363 23.1543C153.678 22.7168 153.835 22.0765 153.835 21.2334C153.835 20.486 153.673 19.8936 153.35 19.4561C153.031 19.0186 152.595 18.7998 152.044 18.7998C151.502 18.7998 151.071 19.0163 150.752 19.4492C150.433 19.8776 150.273 20.5202 150.273 21.377ZM164.142 22.71L165.317 17.6035H166.938L164.921 25H163.554L161.968 19.9209L160.409 25H159.042L157.019 17.6035H158.639L159.835 22.6553L161.353 17.6035H162.604L164.142 22.71ZM168.487 21.2471C168.487 20.1077 168.752 19.194 169.28 18.5059C169.809 17.8132 170.518 17.4668 171.406 17.4668C172.19 17.4668 172.824 17.7402 173.307 18.2871V14.5H174.968V25H173.464L173.382 24.2344C172.885 24.8359 172.222 25.1367 171.393 25.1367C170.527 25.1367 169.825 24.7881 169.287 24.0908C168.754 23.3936 168.487 22.4456 168.487 21.2471ZM170.148 21.3906C170.148 22.1426 170.292 22.7305 170.579 23.1543C170.871 23.5736 171.283 23.7832 171.816 23.7832C172.495 23.7832 172.992 23.4801 173.307 22.874V19.7158C173.001 19.1234 172.509 18.8271 171.83 18.8271C171.292 18.8271 170.878 19.0413 170.586 19.4697C170.294 19.8936 170.148 20.5339 170.148 21.3906ZM179.218 25H177.557V17.6035H179.218V25ZM177.454 15.6826C177.454 15.4274 177.534 15.2155 177.693 15.0469C177.857 14.8783 178.09 14.7939 178.391 14.7939C178.691 14.7939 178.924 14.8783 179.088 15.0469C179.252 15.2155 179.334 15.4274 179.334 15.6826C179.334 15.9333 179.252 16.1429 179.088 16.3115C178.924 16.4756 178.691 16.5576 178.391 16.5576C178.09 16.5576 177.857 16.4756 177.693 16.3115C177.534 16.1429 177.454 15.9333 177.454 15.6826ZM183.324 17.6035L183.372 18.458C183.919 17.7972 184.637 17.4668 185.525 17.4668C187.066 17.4668 187.85 18.3486 187.877 20.1123V25H186.216V20.208C186.216 19.7386 186.113 19.3923 185.908 19.1689C185.708 18.9411 185.377 18.8271 184.917 18.8271C184.247 18.8271 183.748 19.1302 183.42 19.7363V25H181.759V17.6035H183.324Z" fill="white" fill-opacity="0.87"/>
</svg>
